<svg width="24" height="24" viewBox="0 0 24 24" fill="none" xmlns="http://www.w3.org/2000/svg">
    <g>
        <path d="M14.4261 15.4686H9.57394C9.20823 15.4686 8.91076 15.7816 8.91076 16.1663V17.7319C8.91076 18.1166 9.20823 18.4296 9.57394 18.4296H14.4261C14.7918 18.4296 15.0893 18.1167 15.0893 17.7319V16.1663C15.0892 15.7816 14.7918 15.4686 14.4261 15.4686ZM14.2366 17.5326H9.76339V16.3657H14.2366V17.5326Z" fill="#001B36"/>
        <path d="M22.7841 11.5912L22.791 11.5876L19.5939 4.93798C19.3354 4.4005 18.8194 4.06667 18.247 4.06667H17.6393V3.44851C17.6393 3.20079 17.4485 3 17.213 3H6.78703C6.55156 3 6.3607 3.20079 6.3607 3.44851V4.06667H5.75307C5.18069 4.06667 4.66463 4.4005 4.40618 4.93798L1.20904 11.5876L1.21587 11.5912C1.07893 11.8285 1 12.1068 1 12.4041V19.4291C1 20.2953 1.66988 21 2.49325 21H21.5068C22.3302 21 23 20.2953 23 19.4291V12.4041C23 12.1068 22.9211 11.8285 22.7841 11.5912ZM17.6393 5.06337H18.2469C18.46 5.06337 18.6521 5.18773 18.7484 5.38789L21.3665 10.8332H19.5863V9.1577C19.5863 8.90998 19.3954 8.70919 19.1599 8.70919H18.6325V6.30313C18.6325 6.05541 18.4416 5.85462 18.2061 5.85462H17.6393V5.06337ZM18.7336 9.60617V10.8332H16.4838C16.0978 10.8332 15.7459 11.0724 15.5873 11.4426L14.973 12.876C14.9672 12.8895 14.9543 12.8983 14.9402 12.8983H9.05986C9.04573 12.8983 9.03288 12.8895 9.02704 12.876L8.4128 11.4427C8.25416 11.0724 7.90224 10.8332 7.51621 10.8332H5.26641V9.60617H18.7336ZM7.21337 3.89702H16.7866V5.85457H7.21337V3.89702ZM17.7798 6.7516V8.70914H6.22019V6.7516H17.7798ZM5.25159 5.38789C5.34784 5.18768 5.53999 5.06337 5.75307 5.06337H6.3607V5.85457H5.79385C5.55838 5.85457 5.36752 6.05537 5.36752 6.30308V8.70914H4.84007C4.60461 8.70914 4.41374 8.90994 4.41374 9.15766V10.8332H2.6335L5.25159 5.38789ZM21.5068 20.0033H2.49325C2.1923 20.0033 1.94742 19.7456 1.94742 19.4291V12.4041C1.94742 12.0875 2.19225 11.8299 2.49325 11.8299H7.51621C7.5303 11.8299 7.54324 11.8387 7.54908 11.8523L8.16332 13.2856C8.32196 13.6558 8.67383 13.895 9.05986 13.895H14.9401C15.3262 13.895 15.6781 13.6558 15.8367 13.2857L16.451 11.8523V11.8523C16.4568 11.8387 16.4697 11.8299 16.4838 11.8299H21.5068C21.8077 11.8299 22.0525 12.0875 22.0525 12.4041V19.4291H22.0525C22.0526 19.7457 21.8077 20.0033 21.5068 20.0033Z" fill="#001B36"/>
    </g>
</svg>
