<svg width="24" height="24" viewBox="0 0 24 24" fill="none" xmlns="http://www.w3.org/2000/svg">
    <g>
        <path d="M20.9292 19.3004L19.6935 15.7041C20.2878 14.5027 20.6022 13.1636 20.6043 11.8161C20.6079 9.49572 19.7101 7.30166 18.0762 5.63821C16.4421 3.97444 14.2646 3.03795 11.9448 3.00114C10.7294 2.98163 9.55007 3.20558 8.43773 3.66602C7.36487 4.11014 6.40275 4.75347 5.57813 5.57809C4.75347 6.40271 4.11014 7.36483 3.66605 8.43769C3.20561 9.55004 2.98191 10.73 3.00114 11.9448C3.03788 14.2646 3.97441 16.4421 5.63817 18.0762C7.29839 19.7069 9.48679 20.6044 11.8022 20.6043C11.8067 20.6043 11.8115 20.6043 11.816 20.6043C13.1635 20.6022 14.5026 20.2879 15.7041 19.6935L19.3003 20.9292C19.4386 20.9768 19.5804 20.9999 19.7206 20.9999C20.0536 20.9999 20.3776 20.8691 20.6233 20.6234C20.9724 20.2743 21.0896 19.7673 20.9292 19.3004ZM19.8687 19.8688C19.8333 19.9042 19.7575 19.9579 19.6471 19.92L15.8363 18.6106C15.78 18.5912 15.7214 18.5816 15.663 18.5816C15.5768 18.5816 15.4911 18.6024 15.4134 18.6435C14.3121 19.2262 13.0676 19.5352 11.8143 19.5371C7.61142 19.5439 4.13475 16.1301 4.06817 11.9279C4.03466 9.8136 4.8389 7.82654 6.33272 6.33272C7.82654 4.83893 9.813 4.03484 11.9279 4.06827C16.1301 4.13489 19.5436 7.60984 19.537 11.8144C19.5351 13.0677 19.2261 14.3122 18.6435 15.4135C18.5745 15.5438 18.5626 15.697 18.6105 15.8364L19.9199 19.6471C19.9578 19.7575 19.9041 19.8334 19.8687 19.8688Z" fill="#001B36"/>
        <path d="M11.7154 15.7528C11.4363 15.7528 11.1689 15.9982 11.1818 16.2864C11.1947 16.5755 11.4163 16.82 11.7154 16.82C11.9945 16.82 12.2619 16.5746 12.249 16.2864C12.2361 15.9973 12.0146 15.7528 11.7154 15.7528Z" fill="#001B36"/>
        <path d="M11.7154 7.48851C10.2515 7.48851 9.06058 8.67946 9.06058 10.1433C9.06058 10.438 9.2995 10.6769 9.59418 10.6769C9.88886 10.6769 10.1278 10.438 10.1278 10.1433C10.1278 9.26794 10.84 8.55571 11.7154 8.55571C12.5908 8.55571 13.303 9.26794 13.303 10.1433C13.303 11.0187 12.5908 11.7309 11.7154 11.7309C11.4207 11.7309 11.1818 11.9699 11.1818 12.2646V14.4409C11.1818 14.7356 11.4207 14.9745 11.7154 14.9745C12.0101 14.9745 12.249 14.7356 12.249 14.4409V12.7443C13.458 12.4966 14.3702 11.4245 14.3702 10.1433C14.3702 8.67946 13.1793 7.48851 11.7154 7.48851Z" fill="#001B36"/>
    </g>
</svg>
