<svg width="24" height="24" viewBox="0 0 24 24" fill="none" xmlns="http://www.w3.org/2000/svg">
    <g>
        <path d="M20.8455 9.80298L15.1972 4.1545C15.0981 4.05548 14.9641 4 14.8242 4H7.76367C6.69429 4 5.82417 4.86998 5.82417 5.9395V12.755H4.93936C3.86998 12.755 3 13.6251 3 14.6945V16.954C3 18.0234 3.86998 18.8933 4.93936 18.8933H5.82417V20.0605C5.82417 21.13 6.69429 22 7.76367 22H19.0605C20.13 22 21 21.13 21 20.0605V10.1758C21 10.0359 20.9444 9.90172 20.8455 9.80298ZM15.3515 5.80052L19.1995 9.64848H16.2363C15.7484 9.64848 15.3515 9.2516 15.3515 8.76367V5.80052ZM4.05469 16.954V14.6945C4.05469 14.2067 4.45157 13.8097 4.93936 13.8097H14.8242C15.3121 13.8097 15.709 14.2067 15.709 14.6945V16.954C15.709 17.4418 15.3121 17.8387 14.8242 17.8387H4.93936C4.45157 17.8387 4.05469 17.4418 4.05469 16.954ZM19.0605 20.9453H7.76367C7.27574 20.9453 6.87886 20.5484 6.87886 20.0605V18.8933H14.8242C15.8937 18.8933 16.7637 18.0234 16.7637 16.954V14.6945C16.7637 13.6251 15.8937 12.755 14.8242 12.755H6.87886V5.9395C6.87886 5.45157 7.27574 5.05469 7.76367 5.05469H14.2968V8.76367C14.2968 9.83305 15.1669 10.7032 16.2363 10.7032H19.9453V20.0605C19.9453 20.5484 19.5484 20.9453 19.0605 20.9453Z" fill="#001B36"/>
    </g>
</svg>
