<svg width="24" height="24" viewBox="0 0 24 24" fill="none" xmlns="http://www.w3.org/2000/svg">
    <g>
        <path d="M20.0788 10.1115L18.8153 9.89715C18.6837 9.47225 18.5145 9.06239 18.3077 8.67133L19.0522 7.62976C19.3681 7.18606 19.3192 6.58067 18.9319 6.19713L17.8114 5.0766C17.6008 4.86603 17.3225 4.74946 17.0255 4.74946C16.7924 4.74946 16.5705 4.82091 16.3825 4.95627L15.3372 5.70079C14.9311 5.48646 14.5062 5.30973 14.0662 5.17812L13.8557 3.92974C13.7654 3.39204 13.3029 3.00098 12.7577 3.00098H11.1746C10.6294 3.00098 10.1669 3.39204 10.0767 3.92974L9.85858 5.2082C9.43743 5.33981 9.02757 5.51278 8.63652 5.72335L7.60247 4.97883C7.41446 4.84347 7.18884 4.77202 6.95571 4.77202C6.65866 4.77202 6.37665 4.88859 6.16984 5.09916L5.04554 6.21969C4.662 6.60323 4.60936 7.20862 4.92521 7.65232L5.67725 8.70894C5.47044 9.10375 5.30499 9.51362 5.17715 9.93852L3.92877 10.1491C3.39106 10.2393 3 10.7018 3 11.2471V12.8301C3 13.3753 3.39106 13.8378 3.92877 13.9281L5.20723 14.1462C5.33883 14.5673 5.5118 14.9772 5.72237 15.3682L4.98162 16.3985C4.66576 16.8422 4.71464 17.4476 5.10194 17.8311L6.22248 18.9517C6.43305 19.1622 6.7113 19.2788 7.00836 19.2788C7.24149 19.2788 7.46334 19.2074 7.65135 19.072L8.70796 18.32C9.08774 18.5193 9.48632 18.6809 9.89618 18.8088L10.1067 20.0722C10.197 20.6099 10.6595 21.001 11.2047 21.001H12.7915C13.3367 21.001 13.7992 20.6099 13.8895 20.0722L14.1038 18.8088C14.5287 18.6772 14.9386 18.508 15.3296 18.3012L16.3712 19.0457C16.5592 19.181 16.7848 19.2525 17.018 19.2525C17.315 19.2525 17.5933 19.1359 17.8038 18.9254L18.9244 17.8048C19.3079 17.4213 19.3606 16.8159 19.0447 16.3722L18.3002 15.3269C18.507 14.932 18.68 14.5222 18.8078 14.101L20.0712 13.8905C20.6089 13.8002 21 13.3377 21 12.7925V11.2095C21.0075 10.6642 20.6165 10.2017 20.0788 10.1115ZM19.9923 12.7925C19.9923 12.8414 19.9584 12.8827 19.9095 12.8903L18.3303 13.1535C18.131 13.1873 17.9731 13.334 17.9242 13.5257C17.7813 14.0785 17.5632 14.6087 17.2699 15.1012C17.1684 15.2742 17.1759 15.4885 17.2925 15.654L18.2212 16.9625C18.2475 17.0001 18.2438 17.0565 18.2099 17.0904L17.0894 18.2109C17.0631 18.2372 17.0368 18.241 17.018 18.241C16.9954 18.241 16.9766 18.2335 16.9616 18.2222L15.6568 17.2934C15.4951 17.1769 15.277 17.1693 15.104 17.2709C14.6114 17.5642 14.0813 17.7823 13.5285 17.9251C13.333 17.974 13.1863 18.1357 13.1563 18.3312L12.8893 19.9105C12.8818 19.9594 12.8404 19.9932 12.7915 19.9932H11.2085C11.1596 19.9932 11.1182 19.9594 11.1107 19.9105L10.8475 18.3312C10.8137 18.132 10.667 17.974 10.4752 17.9251C9.93754 17.786 9.41863 17.5717 8.93357 17.2934C8.85461 17.2483 8.76436 17.2258 8.67788 17.2258C8.57635 17.2258 8.47107 17.2558 8.38458 17.3198L7.06852 18.256C7.04972 18.2673 7.03092 18.2748 7.01212 18.2748C6.99708 18.2748 6.96699 18.2711 6.94067 18.2448L5.82014 17.1242C5.7863 17.0904 5.78254 17.0377 5.80886 16.9964L6.73386 15.6991C6.85043 15.5337 6.85795 15.3156 6.75642 15.1426C6.46313 14.6538 6.23752 14.1236 6.09463 13.5709C6.04199 13.3791 5.88406 13.2324 5.68853 13.1986L4.09797 12.9279C4.04909 12.9203 4.01525 12.879 4.01525 12.8301V11.2471C4.01525 11.1982 4.04909 11.1568 4.09797 11.1493L5.66597 10.8861C5.86526 10.8522 6.02695 10.7056 6.07583 10.5101C6.21496 9.95732 6.42929 9.42337 6.71882 8.93079C6.82035 8.75782 6.80907 8.54349 6.6925 8.3818L5.75621 7.06574C5.72989 7.02813 5.73365 6.97173 5.7675 6.93789L6.88803 5.81735C6.91435 5.79103 6.94067 5.78727 6.95947 5.78727C6.98203 5.78727 7.00084 5.79479 7.01588 5.80607L8.31314 6.73108C8.47859 6.84764 8.69668 6.85517 8.86965 6.75364C9.35847 6.46035 9.88866 6.23473 10.4414 6.09185C10.6332 6.03921 10.7798 5.88128 10.8137 5.68575L11.0844 4.09519C11.0919 4.04631 11.1333 4.01247 11.1822 4.01247H12.7652C12.8141 4.01247 12.8554 4.04631 12.863 4.09519L13.1262 5.66319C13.16 5.86248 13.3067 6.02416 13.5022 6.07305C14.07 6.21593 14.6114 6.43778 15.1153 6.73484C15.2883 6.83636 15.5026 6.82884 15.6681 6.71228L16.9653 5.77975C16.9841 5.76847 17.0029 5.76095 17.0217 5.76095C17.0368 5.76095 17.0668 5.76471 17.0932 5.79103L18.2137 6.91157C18.2475 6.94541 18.2513 6.99805 18.225 7.03941L17.2962 8.3442C17.1797 8.50589 17.1721 8.72398 17.2737 8.89694C17.567 9.38953 17.785 9.91971 17.9279 10.4725C17.9768 10.668 18.1385 10.8146 18.334 10.8447L19.9133 11.1117C19.9622 11.1192 19.996 11.1606 19.996 11.2095V12.7925H19.9923Z" fill="#001B36"/>
        <path d="M12.0019 8.11483C9.85858 8.11483 8.11761 9.85579 8.11761 11.9991C8.11761 14.1424 9.85858 15.8834 12.0019 15.8834C14.1452 15.8834 15.8862 14.1424 15.8862 11.9991C15.8862 9.85579 14.1452 8.11483 12.0019 8.11483ZM12.0019 14.8681C10.4188 14.8681 9.13286 13.5821 9.13286 11.9991C9.13286 10.4161 10.4188 9.13008 12.0019 9.13008C13.5849 9.13008 14.8709 10.4161 14.8709 11.9991C14.8709 13.5821 13.5849 14.8681 12.0019 14.8681Z" fill="#001B36"/>
    </g>
</svg>
