<svg width="374" height="190" viewBox="0 0 374 190" fill="none" xmlns="http://www.w3.org/2000/svg">
<g clip-path="url(#clip0)">
<rect width="375" height="190" fill="#58C2F1"/>
<path d="M414.948 55.3668C414.848 55.3668 414.848 55.3668 414.948 55.3668C414.848 55.2671 414.849 55.1674 414.849 55.1674L414.749 55.0677L414.649 54.968L414.549 54.8683C414.549 54.8683 414.549 54.8683 414.449 54.8683L395.563 44H395.463H395.364H395.264H395.164H395.064H394.964H394.864H394.764H394.664H394.564H394.464H394.364H394.264H394.164L376.078 54.4695L357.793 44H357.693H357.593H357.493H357.393H357.293H357.193H357.093H356.993H356.893H356.793H356.693H356.594H356.494H356.394L338.308 54.4695L320.122 44H320.022H319.922H319.822H319.722H319.622H319.522H319.422H319.322H319.222H319.122H319.023H318.923H318.823H318.723L300.637 54.4695L282.451 44H282.351H282.251H282.151H282.051H281.951H281.851H281.751H281.651H281.552H281.452H281.352H281.252H281.152H281.052L262.966 54.4695L244.78 44H244.68H244.58H244.48H244.38H244.28H244.18H244.08H243.981H243.881H243.781H243.681H243.581H243.481H243.381L225.295 54.4695L207.109 44H207.009H206.909H206.809H206.709H206.609H206.51H206.41H206.31H206.21H206.11H206.01H205.91H205.81H205.71L187.624 54.4695L169.438 44H169.338H169.238H169.138H169.038H168.939H168.839H168.739H168.639H168.539H168.439H168.339H168.239H168.139H168.039L149.853 54.4695L131.767 44H131.667H131.567H131.467H131.368H131.268H131.168H131.068H130.968H130.868H130.768H130.668H130.568H130.468H130.368L112.282 54.4695L93.9965 44H93.8965H93.7966H93.6967H93.5968H93.4968H93.3969H93.297H93.1971H93.0971H92.9972H92.8973H92.7974H92.6975H92.5975L74.5115 54.4695L56.3256 44H56.2256H56.1257H56.0258H55.9259H55.826H55.726H55.6261H55.5262H55.4263H55.3263H55.2264H55.1265H55.0266H54.9266L36.8406 54.4695L18.6547 44H18.5547H18.4548H18.3549H18.255H18.1551H18.0551H17.9552H17.8553H17.7554H17.6554H17.5555H17.4556H17.3557H17.2558L-0.930195 54.4695L-19.0162 44H-19.1161H-19.2161H-19.316H-19.4159H-19.5158H-19.6158H-19.7157H-19.8156H-19.9155H-20.0154H-20.1154H-20.2153H-20.3152H-20.4151L-39.3005 54.8683C-39.3005 54.8683 -39.3005 54.8683 -39.4005 54.8683L-39.5004 54.968L-39.6003 55.0677L-39.7002 55.1674L-39.8002 55.2671C-39.8002 55.2671 -39.8002 55.2671 -39.8002 55.3668C-39.8002 55.3668 -39.8002 55.4666 -39.9001 55.4666V55.5663C-40 55.7657 -40 55.7657 -40 55.7657V55.8654V55.9651V56.0648V56.1645V56.2642V77.1035V77.2032V77.3029V77.4026V77.5023V77.602V77.7017V98.4412V98.5409V98.6406V98.7403V98.84V98.9398V99.0395V119.978V120.078V120.178V120.278V120.377V120.477V120.577V141.416V141.516V141.615V141.715V141.815V141.914V142.014V162.754V162.853V162.953V163.053V163.152V163.252V163.352V184.291V184.391V184.49V184.59V184.69V184.789V184.889V207.324V207.423V207.523V207.623V207.722V207.822V207.922V228.861V228.961V229.06V229.16V229.26V229.359V229.459V250.298V250.398V250.498V250.597V250.697V250.797V250.897V271.636V271.736V271.835V271.935V272.035V272.135V272.234V272.334C-40 272.334 -40 272.434 -39.9001 272.434C-39.9001 272.434 -39.9001 272.434 -39.9001 272.533L-39.8002 272.633L-39.7002 272.733L-39.6003 272.833L-39.5004 272.932C-39.5004 272.932 -39.5004 272.932 -39.4005 272.932L-20.615 283.701C-20.5151 283.801 -20.4151 283.801 -20.2153 283.9C-20.1154 283.9 -20.0154 283.9 -19.9155 284H-19.8156H-19.7157C-19.6158 284 -19.5158 284 -19.4159 283.9C-19.316 283.9 -19.1161 283.801 -19.0162 283.701L-1.03011 273.331L16.956 283.701C17.0559 283.801 17.1558 283.801 17.3557 283.9C17.4556 283.9 17.5555 283.9 17.6554 284H17.7554H17.8553C17.9552 284 18.0551 284 18.1551 283.9C18.255 283.9 18.4548 283.801 18.5547 283.701L36.5408 273.331L54.5269 283.701C54.6269 283.801 54.7268 283.801 54.9266 283.9C55.0266 283.9 55.1265 283.9 55.2264 284H55.3263H55.4263C55.5262 284 55.6261 284 55.726 283.9C55.826 283.9 56.0258 283.801 56.1257 283.701L74.1118 273.331L92.0979 283.701C92.1978 283.801 92.2978 283.801 92.4976 283.9C92.5975 283.9 92.6974 283.9 92.7974 284H92.8973H92.9972C93.0972 284 93.1971 284 93.297 283.9C93.3969 283.9 93.5968 283.801 93.6967 283.701L111.683 273.331L129.669 283.701C129.769 283.801 129.869 283.801 130.069 283.9C130.168 283.9 130.268 283.9 130.368 284H130.468H130.568C130.668 284 130.768 284 130.868 283.9C130.968 283.9 131.168 283.801 131.268 283.701L149.254 273.331L167.24 283.701C167.34 283.801 167.44 283.801 167.64 283.9C167.739 283.9 167.839 283.9 167.939 284H168.039H168.139C168.239 284 168.339 284 168.439 283.9C168.539 283.9 168.739 283.801 168.839 283.701L186.825 273.331L204.811 283.701C204.911 283.801 205.011 283.801 205.21 283.9C205.31 283.9 205.41 283.9 205.51 284H205.61H205.71C205.81 284 205.91 284 206.01 283.9C206.11 283.9 206.31 283.801 206.41 283.701L224.396 273.331L242.382 283.701C242.482 283.801 242.582 283.801 242.781 283.9C242.881 283.9 242.981 283.9 243.081 284H243.181H243.281C243.381 284 243.481 284 243.581 283.9C243.681 283.9 243.881 283.801 243.981 283.701L261.967 273.331L279.953 283.701C280.053 283.801 280.153 283.801 280.352 283.9C280.452 283.9 280.552 283.9 280.652 284H280.752H280.852C280.952 284 281.052 284 281.152 283.9C281.252 283.9 281.452 283.801 281.552 283.701L299.538 273.331L317.524 283.701C317.624 283.801 317.724 283.801 317.923 283.9C318.023 283.9 318.123 283.9 318.223 284H318.323H318.423C318.523 284 318.623 284 318.723 283.9C318.823 283.9 319.023 283.801 319.122 283.701L337.109 273.331L355.095 283.701C355.195 283.801 355.295 283.801 355.494 283.9C355.594 283.9 355.694 283.9 355.794 284H355.894H355.994C356.094 284 356.194 284 356.294 283.9C356.394 283.9 356.594 283.801 356.693 283.701L374.68 273.331L392.666 283.701C392.766 283.801 392.865 283.801 393.065 283.9C393.165 283.9 393.265 283.9 393.365 284H393.465H393.565C393.665 284 393.765 284 393.865 283.9C393.965 283.9 394.164 283.801 394.264 283.701L412.75 273.032C413.35 272.833 413.749 272.334 413.749 271.636V251.196V229.658C413.749 229.559 413.749 229.559 413.749 229.459C413.749 229.359 413.749 229.359 413.749 229.26V207.722V186.185V186.086V185.986V164.449V142.712V121.175V121.075V120.975V99.3386V77.8014V56.1645C415.148 55.8654 415.048 55.5663 414.948 55.3668ZM-37.1022 58.5575L-22.6134 66.9331L-37.1022 75.3087V58.5575ZM-37.1022 80.2941L-22.7134 88.57L-37.1022 96.8459V80.2941ZM-37.1022 101.831L-22.6134 110.207L-37.1022 118.582V101.831ZM-37.1022 123.568L-22.6134 131.944L-37.1022 140.219V123.568ZM-37.1022 145.205L-22.7134 153.481L-37.1022 161.757V145.205ZM-37.1022 166.842L-22.6134 175.217L-37.1022 183.593V166.842ZM-37.1022 188.578L-22.6134 196.954L-37.1022 205.329V188.578ZM-37.1022 210.215L-22.5135 218.591L-37.1022 226.966V210.215ZM-37.1022 231.952L-22.6134 240.327L-37.1022 248.703V231.952ZM-37.1022 253.688L-22.7134 261.964L-37.1022 270.24V253.688ZM-21.2145 281.108L-35.8032 272.733L-21.2145 264.357V281.108ZM-21.2145 259.571L-35.7033 251.196L-21.1146 242.82V259.571H-21.2145ZM-21.2145 237.835L-35.8032 229.459L-21.2145 221.084V237.835ZM-21.2145 216.098L-35.8032 207.722L-21.2145 199.347V216.098ZM-21.2145 194.461L-35.8032 186.086L-21.2145 177.71V194.461ZM-21.2145 172.725L-35.8032 164.349L-21.2145 155.973V172.725ZM-21.2145 151.088L-35.7033 142.712L-21.1146 134.337V151.088H-21.2145ZM-21.2145 129.451L-35.7033 121.075L-21.1146 112.7V129.451H-21.2145ZM-21.2145 107.714L-35.7033 99.3386L-21.1146 90.963V107.714H-21.2145ZM-21.2145 86.177L-35.7033 77.8014L-21.1146 69.4258V86.177H-21.2145ZM-21.2145 64.4404L-35.7033 56.0648L-21.1146 47.6892V64.4404H-21.2145ZM-18.3168 47.6892L-3.72803 56.0648L-18.3168 64.4404V47.6892ZM-18.3168 69.4258L-3.72803 77.8014L-18.3168 86.177V69.4258ZM-18.3168 90.963L-3.72803 99.3386L-18.3168 107.714V90.963ZM-18.3168 112.7L-3.72803 121.075L-18.3168 129.451V112.7ZM-18.3168 134.337L-3.72803 142.712L-18.3168 151.088V134.337ZM-18.3168 155.973L-3.72803 164.349L-18.3168 172.725V155.973ZM-18.3168 177.61L-3.72803 185.986L-18.3168 194.361V177.61ZM-18.3168 199.347L-3.72803 207.722L-18.3168 216.098V199.347ZM-18.3168 221.084L-3.72803 229.459L-18.3168 237.835V221.084ZM-18.3168 242.82L-3.72803 251.196L-18.3168 259.571V242.82ZM-18.3168 281.108V264.357L-3.72803 272.733L-18.3168 281.108ZM-2.22919 270.34L-16.718 261.964L-2.22919 253.589V270.34ZM-2.22919 248.703L-16.8179 240.327L-2.22919 231.952V248.703ZM-2.22919 227.066L-16.9178 218.591L-2.22919 210.116V227.066ZM-2.22919 205.329L-16.8179 196.954L-2.22919 188.578V205.329ZM-2.22919 183.593L-16.8179 175.217L-2.22919 166.842V183.593ZM-2.22919 161.856L-16.718 153.481L-2.22919 145.105V161.856ZM-2.22919 140.319L-16.8179 131.944L-2.22919 123.568V140.319ZM-2.22919 118.582L-16.8179 110.207L-2.22919 101.831V118.582ZM-2.22919 96.9456L-16.718 88.57L-2.22919 80.1944V96.9456ZM-2.22919 75.3087L-16.8179 66.9331L-2.22919 58.5575V75.3087ZM0.568649 58.5575L15.0575 66.9331L0.568649 75.3087V58.5575ZM0.568649 80.2941L14.9575 88.57L0.568649 96.8459V80.2941ZM0.568649 101.831L15.0575 110.207L0.568649 118.582V101.831ZM0.568649 123.568L15.0575 131.944L0.568649 140.319V123.568ZM0.568649 145.205L14.9575 153.481L0.568649 161.757V145.205ZM0.568649 166.842L15.0575 175.217L0.568649 183.593V166.842ZM0.568649 188.578L15.0575 196.954L0.568649 205.329V188.578ZM0.568649 210.215L15.1574 218.591L0.568649 226.966V210.215ZM0.568649 231.952L15.0575 240.327L0.568649 248.703V231.952ZM0.568649 253.688L14.9575 261.964L0.568649 270.24V253.688ZM16.5563 281.108L1.96757 272.733L16.5563 264.357V281.108ZM16.5563 259.571L1.96757 251.196L16.5563 242.82V259.571ZM16.5563 237.835L1.96757 229.459L16.5563 221.084V237.835ZM16.5563 216.098L1.96757 207.722L16.5563 199.347V216.098ZM16.5563 194.461L1.96757 185.986L16.5563 177.61V194.461ZM16.5563 172.725L1.96757 164.349L16.5563 155.973V172.725ZM16.5563 151.088L1.96757 142.712L16.5563 134.337V151.088ZM16.5563 129.451L1.96757 121.075L16.5563 112.7V129.451ZM16.5563 107.714L1.96757 99.3386L16.5563 90.963V107.714ZM16.5563 86.177L1.96757 77.8014L16.5563 69.4258V86.177ZM16.5563 64.4404L1.96757 56.0648L16.5563 47.6892V64.4404ZM19.3541 47.6892L33.9429 56.0648L19.3541 64.4404V47.6892ZM19.3541 69.4258L33.9429 77.8014L19.3541 86.177V69.4258ZM19.3541 90.963L33.9429 99.3386L19.3541 107.714V90.963ZM19.3541 112.7L33.9429 121.075L19.3541 129.451V112.7ZM19.3541 134.337L33.9429 142.712L19.3541 151.088V134.337ZM19.3541 155.973L33.9429 164.349L19.3541 172.725V155.973ZM19.3541 177.61L33.9429 185.986L19.3541 194.361V177.61ZM19.3541 199.347L33.9429 207.722L19.3541 216.098V199.347ZM19.3541 221.084L33.9429 229.459L19.3541 237.835V221.084ZM19.3541 242.82L33.9429 251.196L19.3541 259.571V242.82ZM19.3541 281.108V264.357L33.9429 272.733L19.3541 281.108ZM35.4417 270.34L20.9529 261.964L35.4417 253.589V270.34ZM35.4417 248.703L20.853 240.327L35.4417 231.952V248.703ZM35.4417 227.066L20.7531 218.591L35.4417 210.116V227.066ZM35.4417 205.329L20.853 196.954L35.4417 188.578V205.329ZM35.4417 183.593L20.853 175.217L35.4417 166.842V183.593ZM35.4417 161.856L20.9529 153.58L35.4417 145.205V161.856ZM35.4417 140.319L20.853 131.944L35.4417 123.568V140.319ZM35.4417 118.582L20.853 110.207L35.4417 101.831V118.582ZM35.4417 96.9456L20.9529 88.57L35.4417 80.1944V96.9456ZM35.4417 75.3087L20.853 66.9331L35.4417 58.5575V75.3087ZM38.3395 58.5575L52.8283 66.9331L38.3395 75.3087V58.5575ZM38.3395 80.2941L52.7283 88.57L38.3395 96.8459V80.2941ZM38.3395 101.831L52.8283 110.207L38.3395 118.582V101.831ZM38.3395 123.568L52.8283 131.944L38.3395 140.319V123.568ZM38.3395 145.205L52.7283 153.481L38.3395 161.757V145.205ZM38.3395 166.842L52.8283 175.217L38.3395 183.593V166.842ZM38.3395 188.578L52.8283 196.954L38.3395 205.329V188.578ZM38.3395 210.215L52.9282 218.591L38.3395 226.966V210.215ZM38.3395 231.952L52.8283 240.327L38.3395 248.703V231.952ZM38.3395 253.688L52.7283 261.964L38.3395 270.24V253.688ZM54.2272 281.108L39.6385 272.733L54.2272 264.357V281.108ZM54.2272 259.571L39.6385 251.196L54.2272 242.82V259.571ZM54.2272 237.835L39.6385 229.459L54.2272 221.084V237.835ZM54.2272 216.098L39.6385 207.722L54.2272 199.347V216.098ZM54.2272 194.461L39.6385 186.086L54.2272 177.71V194.461ZM54.2272 172.725L39.6385 164.349L54.2272 155.973V172.725ZM54.2272 151.088L39.6385 142.712L54.2272 134.337V151.088ZM54.2272 129.451L39.6385 121.075L54.2272 112.7V129.451ZM54.2272 107.714L39.6385 99.3386L54.2272 90.963V107.714ZM54.2272 86.177L39.6385 77.8014L54.2272 69.4258V86.177ZM54.2272 64.4404L39.6385 56.0648L54.2272 47.6892V64.4404ZM57.025 47.6892L71.6137 56.0648L57.025 64.4404V47.6892ZM57.025 69.4258L71.6137 77.8014L57.025 86.177V69.4258ZM57.025 90.963L71.6137 99.3386L57.025 107.714V90.963ZM57.025 112.7L71.6137 121.075L57.025 129.451V112.7ZM57.025 134.337L71.6137 142.712L57.025 151.088V134.337ZM57.025 155.973L71.6137 164.349L57.025 172.725V155.973ZM57.025 177.61L71.6137 185.986L57.025 194.361V177.61ZM57.025 199.347L71.6137 207.722L57.025 216.098V199.347ZM57.025 221.084L71.6137 229.459L57.025 237.835V221.084ZM57.025 242.82L71.6137 251.196L57.025 259.571V242.82ZM57.025 281.108V264.357L71.6137 272.733L57.025 281.108ZM73.1126 270.34L58.6238 261.964L73.1126 253.589V270.34ZM73.1126 248.703L58.5239 240.327L73.1126 231.952V248.703ZM73.1126 227.066L58.4239 218.591L73.1126 210.116V227.066ZM73.1126 205.329L58.5239 196.954L73.1126 188.578V205.329ZM73.1126 183.593L58.5239 175.217L73.1126 166.842V183.593ZM73.1126 161.856L58.6238 153.481L73.1126 145.105V161.856ZM73.1126 140.319L58.5239 131.944L73.1126 123.568V140.319ZM73.1126 118.582L58.5239 110.207L73.1126 101.831V118.582ZM73.1126 96.9456L58.6238 88.57L73.1126 80.1944V96.9456ZM73.1126 75.3087L58.5239 66.9331L73.1126 58.5575V75.3087ZM76.0103 58.5575L90.4992 66.9331L76.0103 75.3087V58.5575ZM76.0103 80.2941L90.3992 88.57L76.0103 96.8459V80.2941ZM76.0103 101.831L90.4992 110.207L76.0103 118.582V101.831ZM76.0103 123.568L90.4992 131.944L76.0103 140.319V123.568ZM76.0103 145.205L90.3992 153.481L76.0103 161.757V145.205ZM76.0103 166.842L90.4992 175.217L76.0103 183.593V166.842ZM76.0103 188.578L90.4992 196.954L76.0103 205.329V188.578ZM76.0103 210.215L90.5991 218.591L76.0103 226.966V210.215ZM76.0103 231.952L90.4992 240.327L76.0103 248.703V231.952ZM76.0103 253.688L90.3992 261.964L76.0103 270.24V253.688ZM91.8981 281.108L77.3093 272.733L91.8981 264.357V281.108ZM91.8981 259.571L77.3093 251.196L91.8981 242.82V259.571ZM91.8981 237.835L77.3093 229.459L91.8981 221.084V237.835ZM91.8981 216.098L77.3093 207.722L91.8981 199.347V216.098ZM91.8981 194.461L77.3093 186.086L91.8981 177.71V194.461ZM91.8981 172.725L77.3093 164.349L91.8981 155.973V172.725ZM91.8981 151.088L77.3093 142.712L91.8981 134.337V151.088ZM91.8981 129.451L77.3093 121.075L91.8981 112.7V129.451ZM91.8981 107.714L77.3093 99.3386L91.8981 90.963V107.714ZM91.8981 86.177L77.3093 77.8014L91.8981 69.4258V86.177ZM91.8981 64.4404L77.3093 56.0648L91.8981 47.6892V64.4404ZM94.7958 47.6892L109.385 56.0648L94.7958 64.4404V47.6892ZM94.7958 69.4258L109.385 77.8014L94.7958 86.177V69.4258ZM94.7958 90.963L109.385 99.3386L94.7958 107.714V90.963ZM94.7958 112.7L109.385 121.075L94.7958 129.451V112.7ZM94.7958 134.337L109.385 142.712L94.7958 151.088V134.337ZM94.7958 155.973L109.385 164.349L94.7958 172.725V155.973ZM94.7958 177.61L109.385 185.986L94.7958 194.361V177.61ZM94.7958 199.347L109.385 207.722L94.7958 216.098V199.347ZM94.7958 221.084L109.385 229.459L94.7958 237.835V221.084ZM94.7958 242.82L109.385 251.196L94.7958 259.571V242.82ZM94.7958 281.108V264.357L109.385 272.733L94.7958 281.108ZM110.783 270.34L96.2947 261.964L110.783 253.589V270.34ZM110.783 248.703L96.1947 240.327L110.783 231.952V248.703ZM110.783 227.066L96.0948 218.591L110.783 210.116V227.066ZM110.783 205.329L96.1947 196.954L110.783 188.578V205.329ZM110.783 183.593L96.1947 175.217L110.783 166.842V183.593ZM110.783 161.856L96.2947 153.481L110.783 145.105V161.856ZM110.783 140.319L96.1947 131.944L110.783 123.568V140.319ZM110.783 118.582L96.1947 110.207L110.783 101.831V118.582ZM110.783 96.9456L96.2947 88.57L110.783 80.1944V96.9456ZM110.783 75.3087L96.1947 66.9331L110.783 58.5575V75.3087ZM113.681 58.5575L128.17 66.9331L113.681 75.3087V58.5575ZM129.569 69.4258V86.177L114.98 77.8014L129.569 69.4258ZM113.681 80.2941L128.07 88.57L113.681 96.8459V80.2941ZM113.681 101.831L128.17 110.207L113.681 118.582V101.831ZM113.681 123.568L128.17 131.944L113.681 140.319V123.568ZM129.569 134.337V151.088L114.98 142.712L129.569 134.337ZM113.681 145.205L128.07 153.481L113.681 161.757V145.205ZM113.681 166.842L128.17 175.217L113.681 183.593V166.842ZM113.681 188.578L128.17 196.954L113.681 205.329V188.578ZM129.569 199.347V216.098L114.98 207.722L129.569 199.347ZM113.681 210.215L128.27 218.591L113.681 226.966V210.215ZM113.681 231.952L128.17 240.327L113.681 248.703V231.952ZM129.569 242.82V259.571L114.98 251.196L129.569 242.82ZM113.681 253.688L128.07 261.964L113.681 270.24V253.688ZM129.569 281.108L114.98 272.733L129.569 264.357V281.108ZM129.569 237.835L114.98 229.459L129.569 221.084V237.835ZM129.569 194.461L114.98 186.086L129.569 177.71V194.461ZM129.569 172.725L114.98 164.349L129.569 155.973V172.725ZM129.569 129.451L114.98 121.075L129.569 112.7V129.451ZM129.569 107.714L114.98 99.3386L129.569 90.963V107.714ZM129.569 64.4404L114.98 56.0648L129.569 47.6892V64.4404ZM132.467 47.6892L147.055 56.0648L132.467 64.4404V47.6892ZM132.467 69.4258L147.055 77.8014L132.467 86.177V69.4258ZM132.467 90.963L147.055 99.3386L132.467 107.714V90.963ZM132.467 112.7L147.055 121.075L132.467 129.451V112.7ZM132.467 134.337L147.055 142.712L132.467 151.088V134.337ZM132.467 155.973L147.055 164.349L132.467 172.725V155.973ZM132.467 177.61L147.055 185.986L132.467 194.361V177.61ZM132.467 199.347L147.055 207.722L132.467 216.098V199.347ZM132.467 221.084L147.055 229.459L132.467 237.835V221.084ZM132.467 242.82L147.055 251.196L132.467 259.571V242.82ZM132.467 281.108V264.357L147.055 272.733L132.467 281.108ZM148.454 270.34L133.966 261.964L148.454 253.589V270.34ZM148.454 248.703L133.866 240.327L148.454 231.952V248.703ZM148.454 227.066L133.766 218.591L148.454 210.116V227.066ZM148.454 205.329L133.866 196.954L148.454 188.578V205.329ZM148.454 183.593L133.866 175.217L148.454 166.842V183.593ZM148.454 161.856L133.966 153.481L148.454 145.105V161.856ZM148.454 140.319L133.866 131.944L148.454 123.568V140.319ZM148.454 118.582L133.866 110.207L148.454 101.831V118.582ZM148.454 96.9456L133.966 88.57L148.454 80.1944V96.9456ZM148.454 75.3087L133.866 66.9331L148.454 58.5575V75.3087ZM151.352 58.5575L165.841 66.9331L151.352 75.3087V58.5575ZM167.24 69.4258V86.177L152.651 77.8014L167.24 69.4258ZM151.352 80.2941L165.741 88.57L151.352 96.8459V80.2941ZM151.352 101.831L165.841 110.207L151.352 118.582V101.831ZM151.352 123.568L165.841 131.944L151.352 140.319V123.568ZM167.24 134.337V151.088L152.651 142.712L167.24 134.337ZM151.352 145.205L165.741 153.481L151.352 161.757V145.205ZM151.352 166.842L165.841 175.217L151.352 183.593V166.842ZM151.352 188.578L165.841 196.954L151.352 205.329V188.578ZM167.24 199.347V216.098L152.651 207.722L167.24 199.347ZM151.352 210.215L165.941 218.591L151.352 226.966V210.215ZM151.352 231.952L165.841 240.327L151.352 248.703V231.952ZM167.24 242.82V259.571L152.651 251.196L167.24 242.82ZM151.352 253.688L165.741 261.964L151.352 270.24V253.688ZM167.24 281.108L152.651 272.733L167.24 264.357V281.108ZM167.24 237.835L152.651 229.459L167.24 221.084V237.835ZM167.24 194.461L152.651 186.086L167.24 177.71V194.461ZM167.24 172.725L152.651 164.349L167.24 155.973V172.725ZM167.24 129.451L152.651 121.075L167.24 112.7V129.451ZM167.24 107.714L152.651 99.3386L167.24 90.963V107.714ZM167.24 64.4404L152.651 56.0648L167.24 47.6892V64.4404ZM170.138 47.6892L184.726 56.0648L170.138 64.4404V47.6892ZM170.138 69.4258L184.726 77.8014L170.138 86.177V69.4258ZM170.138 90.963L184.726 99.3386L170.138 107.714V90.963ZM170.138 112.7L184.726 121.075L170.138 129.451V112.7ZM170.138 134.337L184.726 142.712L170.138 151.088V134.337ZM170.138 155.973L184.726 164.349L170.138 172.725V155.973ZM170.138 177.61L184.726 185.986L170.138 194.361V177.61ZM170.138 199.347L184.726 207.722L170.138 216.098V199.347ZM170.138 221.084L184.726 229.459L170.138 237.835V221.084ZM170.138 242.82L184.726 251.196L170.138 259.571V242.82ZM170.138 281.108V264.357L184.726 272.733L170.138 281.108ZM186.125 270.34L171.636 261.964L186.125 253.589V270.34ZM186.125 248.703L171.537 240.327L186.125 231.952V248.703ZM186.125 227.066L171.437 218.591L186.125 210.116V227.066ZM186.125 205.329L171.537 196.954L186.125 188.578V205.329ZM186.125 183.593L171.537 175.217L186.125 166.842V183.593ZM186.125 161.856L171.636 153.481L186.125 145.105V161.856ZM186.125 140.319L171.537 131.944L186.125 123.568V140.319ZM186.125 118.582L171.537 110.207L186.125 101.831V118.582ZM186.125 96.9456L171.636 88.57L186.125 80.1944V96.9456ZM186.125 75.3087L171.537 66.9331L186.125 58.5575V75.3087ZM189.023 58.5575L203.512 66.9331L189.023 75.3087V58.5575ZM204.911 69.4258V86.177L190.322 77.8014L204.911 69.4258ZM189.023 80.2941L203.412 88.57L189.023 96.8459V80.2941ZM189.023 101.831L203.512 110.207L189.023 118.582V101.831ZM189.023 123.568L203.512 131.944L189.023 140.319V123.568ZM204.911 134.337V151.088L190.322 142.712L204.911 134.337ZM189.023 145.205L203.412 153.481L189.023 161.757V145.205ZM189.023 166.842L203.512 175.217L189.023 183.593V166.842ZM189.023 188.578L203.512 196.954L189.023 205.329V188.578ZM204.911 199.347V216.098L190.322 207.722L204.911 199.347ZM189.023 210.215L203.612 218.591L189.023 226.966V210.215ZM189.023 231.952L203.512 240.327L189.023 248.703V231.952ZM204.911 242.82V259.571L190.322 251.196L204.911 242.82ZM189.023 253.688L203.412 261.964L189.023 270.24V253.688ZM204.911 281.108L190.322 272.733L204.911 264.357V281.108ZM204.911 237.835L190.322 229.459L204.911 221.084V237.835ZM204.911 194.461L190.322 186.086L204.911 177.71V194.461ZM204.911 172.725L190.322 164.349L204.911 155.973V172.725ZM204.911 129.451L190.322 121.075L204.911 112.7V129.451ZM204.911 107.714L190.322 99.3386L204.911 90.963V107.714ZM204.911 64.4404L190.322 56.0648L204.911 47.6892V64.4404ZM207.809 47.6892L222.397 56.0648L207.809 64.4404V47.6892ZM207.809 69.4258L222.397 77.8014L207.809 86.177V69.4258ZM207.809 90.963L222.397 99.3386L207.809 107.714V90.963ZM207.809 112.7L222.397 121.075L207.809 129.451V112.7ZM207.809 134.337L222.397 142.712L207.809 151.088V134.337ZM207.809 155.973L222.397 164.349L207.809 172.725V155.973ZM207.809 177.61L222.397 185.986L207.809 194.361V177.61ZM207.809 199.347L222.397 207.722L207.809 216.098V199.347ZM207.809 221.084L222.397 229.459L207.809 237.835V221.084ZM207.809 242.82L222.397 251.196L207.809 259.571V242.82ZM207.809 281.108V264.357L222.397 272.733L207.809 281.108ZM223.896 270.34L209.407 261.964L223.896 253.589V270.34ZM223.896 248.703L209.307 240.327L223.896 231.952V248.703ZM223.896 227.066L209.207 218.591L223.896 210.116V227.066ZM223.896 205.329L209.307 196.954L223.896 188.578V205.329ZM223.896 183.593L209.307 175.217L223.896 166.842V183.593ZM223.896 161.856L209.407 153.481L223.896 145.105V161.856ZM223.896 140.319L209.307 131.944L223.896 123.568V140.319ZM223.896 118.582L209.307 110.207L223.896 101.831V118.582ZM223.896 96.9456L209.407 88.57L223.896 80.1944V96.9456ZM223.896 75.3087L209.307 66.9331L223.896 58.5575V75.3087ZM226.694 58.5575L241.183 66.9331L226.694 75.3087V58.5575ZM242.682 69.4258V86.177L228.093 77.8014L242.682 69.4258ZM226.694 80.2941L241.083 88.57L226.694 96.8459V80.2941ZM226.694 101.831L241.183 110.207L226.694 118.582V101.831ZM226.694 123.568L241.183 131.944L226.694 140.319V123.568ZM242.682 134.337V151.088L228.093 142.712L242.682 134.337ZM226.694 145.205L241.083 153.481L226.694 161.757V145.205ZM226.694 166.842L241.183 175.217L226.694 183.593V166.842ZM226.694 188.578L241.183 196.954L226.694 205.329V188.578ZM242.682 199.347V216.098L228.093 207.722L242.682 199.347ZM226.694 210.215L241.283 218.591L226.694 226.966V210.215ZM226.694 231.952L241.183 240.327L226.694 248.703V231.952ZM242.682 242.82V259.571L228.093 251.196L242.682 242.82ZM226.694 253.688L241.083 261.964L226.694 270.24V253.688ZM242.682 281.108L228.093 272.733L242.682 264.357V281.108ZM242.682 237.835L228.093 229.459L242.682 221.084V237.835ZM242.682 194.461L228.093 186.086L242.682 177.71V194.461ZM242.682 172.725L228.093 164.349L242.682 155.973V172.725ZM242.682 129.451L228.093 121.075L242.682 112.7V129.451ZM242.682 107.714L228.093 99.3386L242.682 90.963V107.714ZM242.682 64.4404L228.093 56.0648L242.682 47.6892V64.4404ZM245.479 47.6892L260.068 56.0648L245.479 64.4404V47.6892ZM245.479 69.4258L260.068 77.8014L245.479 86.177V69.4258ZM245.479 90.963L260.068 99.3386L245.479 107.714V90.963ZM245.479 112.7L260.068 121.075L245.479 129.451V112.7ZM245.479 134.337L260.068 142.712L245.479 151.088V134.337ZM245.479 155.973L260.068 164.349L245.479 172.725V155.973ZM245.479 177.61L260.068 185.986L245.479 194.361V177.61ZM245.479 199.347L260.068 207.722L245.479 216.098V199.347ZM245.479 221.084L260.068 229.459L245.479 237.835V221.084ZM245.479 242.82L260.068 251.196L245.479 259.571V242.82ZM245.479 281.108V264.357L260.068 272.733L245.479 281.108ZM261.567 270.34L247.078 261.964L261.567 253.589V270.34ZM261.567 248.703L246.978 240.327L261.567 231.952V248.703ZM261.567 227.066L246.878 218.591L261.567 210.116V227.066ZM261.567 205.329L246.978 196.954L261.567 188.578V205.329ZM261.567 183.593L246.978 175.217L261.567 166.842V183.593ZM261.567 161.856L247.078 153.481L261.567 145.105V161.856ZM261.567 140.319L246.978 131.944L261.567 123.568V140.319ZM261.567 118.582L246.978 110.207L261.567 101.831V118.582ZM261.567 96.9456L247.078 88.57L261.567 80.1944V96.9456ZM261.567 75.3087L246.978 66.9331L261.567 58.5575V75.3087ZM264.465 58.5575L278.954 66.9331L264.465 75.3087V58.5575ZM264.465 80.2941L278.854 88.57L264.465 96.8459V80.2941ZM264.465 101.831L278.954 110.207L264.465 118.582V101.831ZM264.465 123.568L278.954 131.944L264.465 140.319V123.568ZM264.465 145.205L278.854 153.481L264.465 161.757V145.205ZM264.465 166.842L278.954 175.217L264.465 183.593V166.842ZM264.465 188.578L278.954 196.954L264.465 205.329V188.578ZM264.465 210.215L279.053 218.591L264.465 226.966V210.215ZM264.465 231.952L278.954 240.327L264.465 248.703V231.952ZM264.465 253.688L278.854 261.964L264.465 270.24V253.688ZM280.352 281.108L265.764 272.733L280.352 264.357V281.108ZM280.352 259.571L265.764 251.196L280.352 242.82V259.571ZM280.352 237.835L265.764 229.459L280.352 221.084V237.835ZM280.352 216.098L265.764 207.722L280.352 199.347V216.098ZM280.352 194.461L265.764 186.086L280.352 177.71V194.461ZM280.352 172.725L265.764 164.349L280.352 155.973V172.725ZM280.352 151.088L265.764 142.712L280.352 134.337V151.088ZM280.352 129.451L265.764 121.075L280.352 112.7V129.451ZM280.352 107.714L265.764 99.3386L280.352 90.963V107.714ZM280.352 86.177L265.764 77.8014L280.352 69.4258V86.177ZM280.352 64.4404L265.764 56.0648L280.352 47.6892V64.4404ZM283.15 47.6892L297.739 56.0648L283.15 64.4404V47.6892ZM283.15 69.4258L297.739 77.8014L283.15 86.177V69.4258ZM283.15 90.963L297.739 99.3386L283.15 107.714V90.963ZM283.15 112.7L297.739 121.075L283.15 129.451V112.7ZM283.15 134.337L297.739 142.712L283.15 151.088V134.337ZM283.15 155.973L297.739 164.349L283.15 172.725V155.973ZM283.15 177.61L297.739 185.986L283.15 194.361V177.61ZM283.15 199.347L297.739 207.722L283.15 216.098V199.347ZM283.15 221.084L297.739 229.459L283.15 237.835V221.084ZM283.15 242.82L297.739 251.196L283.15 259.571V242.82ZM283.15 281.108V264.357L297.739 272.733L283.15 281.108ZM299.238 270.34L284.749 261.964L299.238 253.589V270.34ZM299.238 248.703L284.649 240.327L299.238 231.952V248.703ZM299.238 227.066L284.549 218.591L299.238 210.116V227.066ZM299.238 205.329L284.649 196.954L299.238 188.578V205.329ZM299.238 183.593L284.649 175.217L299.238 166.842V183.593ZM299.238 161.856L284.749 153.481L299.238 145.105V161.856ZM299.238 140.319L284.649 131.944L299.238 123.568V140.319ZM299.238 118.582L284.649 110.207L299.238 101.831V118.582ZM299.238 96.9456L284.749 88.57L299.238 80.1944V96.9456ZM299.238 75.3087L284.649 66.9331L299.238 58.5575V75.3087ZM302.136 58.5575L316.624 66.9331L302.136 75.3087V58.5575ZM302.136 80.2941L316.524 88.57L302.136 96.8459V80.2941ZM302.136 101.831L316.624 110.207L302.136 118.582V101.831ZM302.136 123.568L316.624 131.944L302.136 140.319V123.568ZM302.136 145.205L316.524 153.481L302.136 161.757V145.205ZM302.136 166.842L316.624 175.217L302.136 183.593V166.842ZM302.136 188.578L316.624 196.954L302.136 205.329V188.578ZM302.136 210.215L316.724 218.591L302.136 226.966V210.215ZM302.136 231.952L316.624 240.327L302.136 248.703V231.952ZM302.136 253.688L316.524 261.964L302.136 270.24V253.688ZM318.023 281.108L303.435 272.733L318.023 264.357V281.108ZM318.023 259.571L303.435 251.196L318.023 242.82V259.571ZM318.023 237.835L303.435 229.459L318.023 221.084V237.835ZM318.023 216.098L303.435 207.722L318.023 199.347V216.098ZM318.023 194.461L303.435 186.086L318.023 177.71V194.461ZM318.023 172.725L303.435 164.349L318.023 155.973V172.725ZM318.023 151.088L303.435 142.712L318.023 134.337V151.088ZM318.023 129.451L303.435 121.075L318.023 112.7V129.451ZM318.023 107.714L303.435 99.3386L318.023 90.963V107.714ZM318.023 86.177L303.435 77.8014L318.023 69.4258V86.177ZM318.023 64.4404L303.435 56.0648L318.023 47.6892V64.4404ZM320.921 47.6892L335.51 56.0648L320.921 64.4404V47.6892ZM320.921 69.4258L335.51 77.8014L320.921 86.177V69.4258ZM320.921 90.963L335.51 99.3386L320.921 107.714V90.963ZM320.921 112.7L335.51 121.075L320.921 129.451V112.7ZM320.921 134.337L335.51 142.712L320.921 151.088V134.337ZM320.921 155.973L335.51 164.349L320.921 172.725V155.973ZM320.921 177.61L335.51 185.986L320.921 194.361V177.61ZM320.921 199.347L335.51 207.722L320.921 216.098V199.347ZM320.921 221.084L335.51 229.459L320.921 237.835V221.084ZM320.921 242.82L335.51 251.196L320.921 259.571V242.82ZM320.921 281.108V264.357L335.51 272.733L320.921 281.108ZM336.909 270.34L322.42 261.964L336.909 253.589V270.34ZM336.909 248.703L322.32 240.327L336.909 231.952V248.703ZM336.909 227.066L322.22 218.591L336.909 210.116V227.066ZM336.909 205.329L322.32 196.954L336.909 188.578V205.329ZM336.909 183.593L322.32 175.217L336.909 166.842V183.593ZM336.909 161.856L322.42 153.481L336.909 145.105V161.856ZM336.909 140.319L322.32 131.944L336.909 123.568V140.319ZM336.909 118.582L322.32 110.207L336.909 101.831V118.582ZM336.909 96.9456L322.42 88.57L336.909 80.1944V96.9456ZM336.909 75.3087L322.32 66.9331L336.909 58.5575V75.3087ZM339.806 58.5575L354.295 66.9331L339.806 75.3087V58.5575ZM339.806 80.2941L354.195 88.57L339.806 96.8459V80.2941ZM339.806 101.831L354.295 110.207L339.806 118.582V101.831ZM339.806 123.568L354.295 131.944L339.806 140.319V123.568ZM339.806 145.205L354.195 153.481L339.806 161.757V145.205ZM339.806 166.842L354.295 175.217L339.806 183.593V166.842ZM339.806 188.578L354.295 196.954L339.806 205.329V188.578ZM339.806 210.215L354.395 218.591L339.806 226.966V210.215ZM339.806 231.952L354.295 240.327L339.806 248.703V231.952ZM339.806 253.688L354.195 261.964L339.806 270.24V253.688ZM355.694 281.108L341.105 272.733L355.694 264.357V281.108ZM355.694 259.571L341.105 251.196L355.694 242.82V259.571ZM355.694 237.835L341.105 229.459L355.694 221.084V237.835ZM355.694 216.098L341.105 207.722L355.694 199.347V216.098ZM355.694 194.461L341.105 186.086L355.694 177.71V194.461ZM355.694 172.725L341.105 164.349L355.694 155.973V172.725ZM355.694 151.088L341.105 142.712L355.694 134.337V151.088ZM355.694 129.451L341.105 121.075L355.694 112.7V129.451ZM355.694 107.714L341.105 99.3386L355.694 90.963V107.714ZM355.694 86.177L341.105 77.8014L355.694 69.4258V86.177ZM355.694 64.4404L341.105 56.0648L355.694 47.6892V64.4404ZM358.592 47.6892L373.181 56.0648L358.592 64.4404V47.6892ZM358.592 69.4258L373.181 77.8014L358.592 86.177V69.4258ZM358.592 90.963L373.181 99.3386L358.592 107.714V90.963ZM358.592 112.7L373.181 121.075L358.592 129.451V112.7ZM358.592 134.337L373.181 142.712L358.592 151.088V134.337ZM358.592 155.973L373.181 164.349L358.592 172.725V155.973ZM358.592 177.61L373.181 185.986L358.592 194.361V177.61ZM358.592 199.347L373.181 207.722L358.592 216.098V199.347ZM358.592 221.084L373.181 229.459L358.592 237.835V221.084ZM358.592 242.82L373.181 251.196L358.592 259.571V242.82ZM358.592 281.108V264.357L373.181 272.733L358.592 281.108ZM374.58 270.34L360.091 261.964L374.58 253.589V270.34ZM374.58 248.703L359.991 240.327L374.58 231.952V248.703ZM374.58 227.066L359.891 218.591L374.58 210.116V227.066ZM374.58 205.329L359.991 196.954L374.58 188.578V205.329ZM374.58 183.593L359.991 175.217L374.58 166.842V183.593ZM374.58 161.856L360.091 153.481L374.58 145.105V161.856ZM374.58 140.319L359.991 131.944L374.58 123.568V140.319ZM374.58 118.582L359.991 110.207L374.58 101.831V118.582ZM374.58 96.9456L360.091 88.57L374.58 80.1944V96.9456ZM374.58 75.3087L359.991 66.9331L374.58 58.5575V75.3087ZM377.477 58.5575L391.966 66.9331L377.477 75.3087V58.5575ZM377.477 80.2941L391.866 88.57L377.477 96.8459V80.2941ZM377.477 101.831L391.966 110.207L377.477 118.582V101.831ZM377.477 123.568L391.966 131.944L377.477 140.319V123.568ZM377.477 145.205L391.866 153.481L377.477 161.757V145.205ZM377.477 166.842L391.966 175.217L377.477 183.593V166.842ZM377.477 188.578L391.966 196.954L377.477 205.329V188.578ZM377.477 210.215L392.066 218.591L377.477 226.966V210.215ZM377.477 231.952L391.966 240.327L377.477 248.703V231.952ZM377.477 253.688L391.866 261.964L377.477 270.24V253.688ZM393.365 281.108L378.776 272.733L393.365 264.357V281.108ZM393.365 259.571L378.776 251.196L393.365 242.82V259.571ZM393.365 237.835L378.776 229.459L393.365 221.084V237.835ZM393.365 216.098L378.776 207.722L393.365 199.347V216.098ZM393.365 194.461L378.776 186.086L393.365 177.71V194.461ZM393.365 172.725L378.776 164.349L393.365 155.973V172.725ZM393.365 151.088L378.776 142.712L393.365 134.337V151.088ZM393.365 129.451L378.776 121.075L393.365 112.7V129.451ZM393.365 107.714L378.776 99.3386L393.365 90.963V107.714ZM393.365 86.177L378.776 77.8014L393.365 69.4258V86.177ZM393.365 64.4404L378.776 56.0648L393.365 47.6892V64.4404ZM396.263 47.6892L410.852 56.0648L396.263 64.4404V47.6892ZM396.263 69.4258L410.852 77.8014L396.263 86.177V69.4258ZM396.263 90.963L410.852 99.3386L396.263 107.714V90.963ZM396.263 112.7L410.852 121.075L396.263 129.451V112.7ZM396.263 134.337L410.852 142.712L396.263 151.088V134.337ZM396.263 155.973L410.852 164.349L396.263 172.725V155.973ZM396.263 177.61L410.852 185.986L396.263 194.361V177.61ZM396.263 199.347L410.852 207.722L396.263 216.098V199.347ZM412.251 210.116V227.066L397.562 218.591L412.251 210.116ZM396.263 221.084L410.852 229.459L396.263 237.835V221.084ZM396.263 242.82L410.852 251.196L396.263 259.571V242.82ZM396.263 281.108V264.357L410.852 272.733L396.263 281.108ZM412.251 270.34L397.762 261.964L412.251 253.589V270.34ZM412.251 248.703L397.662 240.327L412.251 231.952V248.703ZM412.251 205.329L397.662 196.954L412.251 188.578V205.329ZM412.251 183.593L397.662 175.217L412.251 166.842V183.593ZM412.251 161.856L397.762 153.481L412.251 145.105V161.856ZM412.251 140.319L397.662 131.944L412.251 123.568V140.319ZM412.251 118.582L397.662 110.207L412.251 101.831V118.582ZM412.251 96.9456L397.762 88.57L412.251 80.1944V96.9456ZM412.251 75.3087L397.662 66.9331L412.251 58.5575V75.3087Z" fill="white" fill-opacity="0.15"/>
</g>
<defs>
<clipPath id="clip0">
<rect width="375" height="190" fill="white"/>
</clipPath>
</defs>
</svg>
