<svg width="20" height="24" viewBox="0 0 20 24" fill="none" xmlns="http://www.w3.org/2000/svg">
    <path d="M5.06978 15.4408C5.06978 15.0423 4.79322 14.8046 4.30524 14.8046C4.10598 14.8046 3.97103 14.8242 3.90045 14.8431V16.1219C3.98402 16.1407 4.08677 16.147 4.22839 16.147C4.74852 16.147 5.06978 15.8842 5.06978 15.4408Z" fill="#001B36"/>
    <path d="M8.09058 14.818C7.87206 14.818 7.73083 14.8369 7.64731 14.8564V17.6886C7.73089 17.7082 7.86583 17.7082 7.98784 17.7082C8.87434 17.7145 9.45251 17.2265 9.45251 16.1925C9.45878 15.2934 8.93193 14.818 8.09058 14.818Z" fill="#001B36"/>
    <path d="M13.703 0H4.06363C2.65541 0 1.50927 1.14694 1.50927 2.55436V11.9999H1.25978C0.691414 11.9999 0.230469 12.4604 0.230469 13.0293V19.2717C0.230469 19.8405 0.691364 20.3009 1.25978 20.3009H1.50927V21.4456C1.50927 22.8546 2.65541 23.9999 4.06363 23.9999H17.2161C18.6235 23.9999 19.7698 22.8545 19.7698 21.4456V6.0455L13.703 0ZM2.93078 14.1558C3.23243 14.1049 3.65644 14.0664 4.25383 14.0664C4.85754 14.0664 5.28782 14.1817 5.57693 14.4131C5.8531 14.6313 6.03947 14.9913 6.03947 15.415C6.03947 15.8386 5.89825 16.1988 5.6413 16.4427C5.30709 16.7573 4.81284 16.8986 4.23467 16.8986C4.10599 16.8986 3.99065 16.8922 3.90046 16.8797V18.4276H2.93078V14.1558ZM17.2161 22.4356H4.06363C3.51836 22.4356 3.07434 21.9916 3.07434 21.4456V20.3009H15.3352C15.9036 20.3009 16.3645 19.8405 16.3645 19.2717V13.0293C16.3645 12.4604 15.9036 11.9999 15.3352 11.9999H3.07434V2.55436C3.07434 2.00989 3.51841 1.56587 4.06363 1.56587L13.1178 1.55641V4.90314C13.1178 5.88068 13.9109 6.67459 14.8892 6.67459L18.1677 6.66518L18.2046 21.4455C18.2046 21.9916 17.7614 22.4356 17.2161 22.4356ZM6.66473 18.408V14.1558C7.02438 14.0986 7.49314 14.0664 7.98783 14.0664C8.80997 14.0664 9.34309 14.2139 9.76083 14.5285C10.2104 14.8627 10.4928 15.3954 10.4928 16.1602C10.4928 16.9887 10.1911 17.5607 9.77332 17.9136C9.3175 18.2925 8.62365 18.4722 7.77598 18.4722C7.26834 18.4722 6.90869 18.4401 6.66473 18.408ZM13.6748 15.8905V16.6867H12.1203V18.4276H11.1376V14.0986H13.7838V14.9011H12.1203V15.8905H13.6748Z" fill="#001B36"/>
</svg>
